<svg width="32" height="17" viewBox="0 0 32 17" fill="none" xmlns="http://www.w3.org/2000/svg">
<path d="M15.2653 17C14.0136 13.9191 12.0544 10.9482 9.38778 8.08738C6.66669 5.22654 3.53741 2.91585 3.29253e-06 1.15534L0.653085 -2.74043e-06C3.91839 1.21035 7.10207 2.69579 10.2041 4.45631C13.2517 6.27184 15.7279 8.08738 17.6327 9.90291C19.1565 8.08738 21.1701 6.27184 23.6735 4.45631C26.1769 2.69579 28.7347 1.21036 31.3469 -5.70943e-08L32 1.15534C28.4626 2.91586 25.3605 5.22654 22.6939 8.08738C19.9728 10.9482 17.9864 13.9191 16.7347 17L15.2653 17Z" fill="#F46036"/>
</svg>
